<svg width="662" height="459" viewBox="0 0 662 459" fill="none" xmlns="http://www.w3.org/2000/svg">
<path opacity="0.68" d="M638.236 268.614C605.606 332.556 548.729 358.168 522.38 370.033C504.048 378.289 444.432 404.231 374.388 391.585C331.652 383.868 320.193 368.134 276.681 366.921C234.697 365.751 211.41 379.455 184.501 386.948C101.445 410.075 -26.3364 376.878 -77.196 287.63C-104.848 239.107 -109.745 174.046 -84.8069 117.753C-83.1473 114.006 -45.4072 32.2273 38.0234 11.2028C132.574 -12.6237 164.537 72.1423 279.108 69.5211C390.817 66.9657 415.33 -14.8692 511.386 2.38846C565.8 12.1641 624.506 50.3865 649.652 111.414C680.388 186.011 644.876 255.601 638.236 268.614Z" fill="#F0F0F0"/>
<g clip-path="url(#clip0)">
<rect width="581.539" height="15.2628" rx="7.63141" transform="matrix(-1 0 0 1 530.252 442.737)" fill="#C4C4C4"/>
<path d="M415.824 379.177C415.824 340.666 437.737 309.457 464.753 309.457C469.456 309.457 474.059 310.457 478.361 312.258C482.664 310.457 487.267 309.457 491.969 309.457C518.985 309.457 540.898 340.666 540.898 379.177C540.898 417.688 518.985 448.897 491.969 448.897C491.169 448.897 490.468 448.897 489.668 448.797H466.954C466.154 448.797 465.454 448.897 464.653 448.897C463.853 448.897 463.152 448.897 462.352 448.797H461.951C436.236 446.797 415.824 416.388 415.824 379.177Z" fill="#2E302A"/>
<path d="M97.3354 289.751C105.64 289.751 113.445 293.452 120.249 299.854C125.552 296.453 131.356 294.552 137.459 294.552C163.975 294.552 185.588 330.463 185.588 374.676C185.588 411.186 170.879 441.995 150.867 451.598C146.765 455.299 132.656 457.9 115.946 457.9C109.543 457.9 103.439 457.5 98.2359 456.8C98.0358 456.8 97.7356 456.8 97.5354 456.8C71.0197 456.8 49.4068 419.389 49.4068 373.175C49.3067 327.162 70.8196 289.751 97.3354 289.751Z" fill="#2E302A"/>
<path d="M55.7101 372.575C55.7101 409.486 73.6208 439.295 95.734 439.295C117.847 439.295 135.758 409.386 135.758 372.575C135.758 335.664 117.847 305.856 95.734 305.856C73.6208 305.756 55.7101 335.664 55.7101 372.575Z" fill="white"/>
<path d="M51.1078 401.683L-62.66 386.478C-62.66 386.478 -75.2675 370.874 -78.6695 353.669C-85.3735 320.259 -91.277 299.753 -97.6808 288.55C-104.085 277.347 -113.79 280.548 -115.892 281.948C-120.995 285.549 -123.496 292.751 -123.496 292.751C-123.496 292.751 -121.095 255.14 -113.891 243.037C-106.686 231.033 -93.0781 218.23 -87.4747 212.628C-81.8714 207.026 -48.2514 160.513 -31.3413 148.509C-14.5313 136.506 -10.5289 122.102 50.4073 118.901C111.344 115.7 241.121 112.499 260.332 114.9C279.544 117.3 305.259 123.702 335.677 144.508C366.095 165.314 402.917 205.326 402.917 205.326C402.917 205.326 459.851 219.73 477.462 227.732C495.072 235.735 519.887 242.937 527.992 263.743C535.996 284.549 541.6 327.861 541.6 335.864C541.6 343.866 543.201 379.877 539.999 385.578C536.797 391.18 520.787 404.784 517.585 405.584C514.384 406.384 447.043 413.586 435.837 414.387C424.63 415.187 331.675 423.189 297.154 424.79C262.734 426.39 187.389 427.19 172.18 427.19C172.18 427.19 136.158 422.389 133.757 398.382C131.356 374.375 121.75 346.267 120.149 332.663C118.548 319.059 100.937 284.549 88.1298 282.948C75.3222 281.348 56.1107 302.154 53.7093 339.065C51.1078 375.975 47.9059 394.481 51.1078 401.683Z" fill="white"/>
<path d="M270.438 300.354C270.438 300.354 260.632 276.947 251.026 272.946C241.42 268.945 154.669 269.545 154.669 269.545V296.753C154.769 296.753 254.028 301.555 270.438 300.354Z" fill="#F05C26"/>
<path d="M457.449 347.168C458.35 344.767 467.855 290.251 467.855 275.847C467.855 261.443 464.654 259.042 445.442 259.842C426.231 260.643 301.156 263.043 297.154 264.644C293.151 266.244 281.144 260.643 292.351 294.252C303.558 327.862 314.764 354.37 314.764 354.37C314.764 354.37 320.368 365.573 348.384 364.773C376.401 363.973 444.542 357.571 444.542 357.571C444.542 357.571 454.247 355.97 457.449 347.168Z" fill="#2E302A"/>
<path d="M384.406 202.226C384.406 202.226 335.177 149.71 317.867 139.607C300.556 129.505 275.141 122.302 275.141 122.302C275.141 122.302 245.924 117.601 186.889 120.302C148.666 122.002 79.2246 124.003 79.2246 124.003L98.7362 212.629C98.7362 212.629 356.99 194.223 384.406 202.226Z" fill="#2E302A"/>
<path d="M66.3164 213.429L-73.9669 208.628C-73.9669 208.628 -32.3422 148.51 -3.42501 136.507C25.3921 124.503 36.5987 126.904 44.7036 127.704C52.7083 128.504 66.3164 172.517 66.3164 213.429Z" fill="#2E302A"/>
<path d="M291.852 392.281L289.15 368.774L198.296 369.874C198.296 369.874 176.883 368.774 172.681 380.577C168.378 392.281 168.378 409.386 168.378 409.386L261.834 407.285C261.934 407.285 272.64 406.185 291.852 392.281Z" fill="#F5941E"/>
<path d="M535.996 346.368L479.362 352.769L477.261 389.08C477.261 389.08 515.684 387.98 528.592 384.779C541.299 381.578 535.996 346.368 535.996 346.368Z" fill="#F5941E"/>
<path d="M465.455 401.083C465.455 401.083 461.953 387.279 444.943 389.08C427.833 390.78 338.279 398.083 338.279 398.083C338.279 398.083 325.372 395.582 316.967 402.684C308.562 409.786 302.258 415.388 302.258 415.388L465.455 401.083Z" fill="#2E302A"/>
<path d="M65.8173 196.824L59.4135 195.724C59.4135 195.724 57.3122 200.025 51.909 193.623C46.6059 187.221 51.909 174.418 35.8995 174.418C19.89 174.418 7.08233 175.518 0.678513 186.121C-5.7253 196.824 -3.62407 204.326 1.77914 205.327C7.0823 206.427 66.918 205.327 66.918 205.327L65.8173 196.824Z" fill="white"/>
<path d="M399.215 204.326C399.215 204.326 413.123 204.326 413.123 196.824C413.123 189.322 399.215 177.618 388.508 176.518C377.802 175.418 377.802 182.92 377.802 182.92L399.215 204.326Z" fill="white"/>
<path d="M482.265 292.352C482.265 292.352 492.071 268.945 501.676 264.944C504.578 263.743 514.684 262.943 527.392 262.443C527.592 262.943 527.792 263.443 527.992 263.944C530.794 271.246 533.295 281.149 535.396 291.452C511.983 292.252 489.369 292.852 482.265 292.352Z" fill="#F05C26"/>
<path d="M475.035 281.304C447.427 288.739 370.241 301.38 282.364 292.457" stroke="white" stroke-width="3"/>
<path d="M482.084 300.676C454.476 308.112 377.29 320.752 289.413 311.829" stroke="white" stroke-width="3"/>
<path d="M489.133 320.048C461.524 327.484 384.338 340.124 296.461 331.201" stroke="white" stroke-width="3"/>
</g>
<path d="M636.86 71.3764H653.234C653.789 71.3764 654.178 70.9324 654.178 70.4328V27.9703C654.178 27.4152 653.734 27.0267 653.234 27.0267H636.86C636.305 27.0267 635.916 27.4707 635.916 27.9703V70.4328C635.916 70.9324 636.36 71.3764 636.86 71.3764Z" fill="white"/>
<path d="M562.647 436.61C560.982 438.83 541.555 447.711 539.334 448.266C537.114 448.821 541.555 451.597 541.555 451.597C546.55 451.597 572.638 451.597 572.638 451.597C572.638 451.597 577.578 444.381 569.53 436.61C565.756 436.61 562.647 436.61 562.647 436.61Z" fill="#2E302A"/>
<path d="M558.761 426.064L561.536 438.275C561.536 438.275 567.087 441.605 569.862 438.275C570.972 432.724 569.862 423.843 569.862 423.843L558.761 426.064Z" fill="#CB935A"/>
<path d="M615.933 425.564C614.268 435.389 615.378 441.328 612.048 449.709C611.104 452.041 608.162 455.593 607.607 457.092C607.607 459.534 620.263 457.869 622.594 455.149C625.924 451.208 635.916 430.005 623.316 421.457C621.872 422.289 615.933 425.564 615.933 425.564Z" fill="#2E302A"/>
<path d="M610.383 417.738L615.379 424.953L617.599 430.504C617.599 430.504 624.26 432.169 624.26 427.174C624.26 422.178 622.595 419.958 622.595 419.958L615.934 411.632L610.383 417.738Z" fill="#CB935A"/>
<path d="M528.788 187.94L555.986 428.839H573.193C573.193 428.839 569.308 328.927 564.867 319.491C560.427 310.055 590.567 192.936 572.416 187.94C550.657 185.165 528.788 187.94 528.788 187.94Z" fill="white"/>
<path d="M540.832 38.7385C551.767 37.7394 576.634 33.2433 572.693 73.5411C568.697 113.839 635.36 82.9773 641.355 134.709C647.349 186.442 581.13 212.308 554.764 181.002C528.399 149.696 534.116 105.624 532.118 105.124C530.119 104.625 522.404 100.406 523.403 85.475C524.402 70.5438 518.463 39.2381 540.832 38.7385Z" fill="#2E302A"/>
<path d="M536.446 82.4222C537.612 92.691 541.608 104.125 541.608 104.125L550.045 106.124L551.766 102.405L553.986 89.6936L536.446 82.4222Z" fill="#CB935A"/>
<path d="M532.839 70.5438C532.839 81.8116 543.773 94.4116 553.21 94.4116C562.701 94.4116 565.643 82.4777 567.142 70.5438C568.529 59.3869 559.482 50.1729 549.99 50.1729C540.554 50.1729 532.839 59.2759 532.839 70.5438Z" fill="#CB935A"/>
<path d="M542.33 51.6716C544.828 58.1658 568.696 57.6663 568.696 76.5385C576.633 62.1068 569.195 36.7403 544.328 43.1791C539.832 46.1764 542.33 51.6716 542.33 51.6716Z" fill="#2E302A"/>
<path d="M542.329 51.6715C542.829 54.1693 541.33 68.9341 532.893 69.4892C524.456 70.0442 528.896 38.7385 544.327 43.179C546.769 49.6733 542.329 51.6715 542.329 51.6715Z" fill="#2E302A"/>
<path d="M577.633 187.94C594.84 202.927 616.488 224.575 597.061 264.539C577.633 304.504 579.854 327.262 579.854 327.262C579.854 327.262 609.827 371.667 622.594 413.852C609.827 422.733 609.827 422.733 609.827 422.733L555.431 335.033V187.94H577.633Z" fill="white"/>
<path d="M460.514 214.028L450.523 217.914C450.523 217.914 431.65 220.689 429.985 221.799C428.986 222.465 425.045 229.626 422.159 235.065C421.77 235.787 422.769 236.397 423.269 235.787C425.878 232.512 429.097 228.571 431.151 226.24C438.367 226.24 440.032 229.57 440.032 229.57C440.032 229.57 434.481 229.015 432.261 231.235C437.812 232.345 441.142 232.345 441.142 232.345L465.01 222.354L460.514 214.028Z" fill="#CB935A"/>
<path d="M538.779 101.905C523.349 114.117 512.303 130.991 507.418 150.029C501.368 173.786 487.991 205.591 458.85 212.363C460.515 221.244 462.735 227.35 462.735 227.35C462.735 227.35 529.343 200.707 531.009 151.861C539.334 119.667 538.779 101.905 538.779 101.905Z" fill="#F05C26"/>
<path d="M552.101 99.6848C562.647 100.24 593.731 95.7994 607.608 96.9095C621.484 98.0197 638.136 91.9139 648.682 73.5967C652.568 66.3809 665.889 67.491 660.894 81.9227C653.123 95.2443 633.141 124.108 592.066 125.218L591.233 128.382C582.741 160.132 590.29 194.046 611.438 219.191L622.039 231.791L597.172 248.942C575.414 263.929 545.662 258.212 531.008 236.231C531.008 236.231 514.356 144.645 518.242 137.429C522.127 130.213 538.835 101.683 538.835 101.683L552.101 99.6848Z" fill="#F05C26"/>
<path d="M650.902 75.2619C653.122 77.4822 659.783 79.1474 660.338 75.2619C660.893 71.3764 657.563 54.1694 657.563 54.1694L641.466 47.5086H633.14C634.805 48.6187 640.356 50.2839 640.356 50.2839L645.906 53.0593C645.906 53.0593 634.25 53.6143 634.25 54.1694C634.25 54.7245 641.466 61.9403 643.686 62.4954C645.906 63.0505 650.902 75.2619 650.902 75.2619Z" fill="#CB935A"/>
<path d="M529.128 73.5834C527.797 70.9929 527.934 68.2683 529.434 67.4978C530.933 66.7273 533.228 68.2026 534.559 70.7931C535.89 73.3835 535.753 76.1082 534.253 76.8787C532.753 77.6492 530.459 76.1739 529.128 73.5834Z" fill="#CB935A"/>
<path d="M531.565 80.8126C530.032 80.8126 528.789 79.57 528.789 78.0372C528.789 76.5045 530.032 75.2619 531.565 75.2619C533.097 75.2619 534.34 76.5045 534.34 78.0372C534.34 79.57 533.097 80.8126 531.565 80.8126Z" fill="#F05C26"/>
<defs>
<clipPath id="clip0">
<rect width="672" height="344" fill="white" transform="matrix(-1 0 0 1 542 114)"/>
</clipPath>
</defs>
</svg>
